<?xml version="1.0" encoding="UTF-8"?><svg xmlns="http://www.w3.org/2000/svg" xmlns:xlink="http://www.w3.org/1999/xlink" fill-opacity="1" color-rendering="auto" color-interpolation="auto" text-rendering="auto" stroke="black" stroke-linecap="square" width="658" stroke-miterlimit="10" shape-rendering="auto" stroke-opacity="1" fill="black" stroke-dasharray="none" font-weight="normal" stroke-width="1" height="466" font-family="'Dialog'" font-style="normal" stroke-linejoin="miter" font-size="12px" stroke-dashoffset="0" image-rendering="auto">
  <!--Generated by ySVG 2.5-->
  <defs id="genericDefs"/>
  <g>
    <defs id="defs1">
      <clipPath clipPathUnits="userSpaceOnUse" id="clipPath1">
        <path d="M0 0 L658 0 L658 466 L0 466 L0 0 Z"/>
      </clipPath>
      <clipPath clipPathUnits="userSpaceOnUse" id="clipPath2">
        <path d="M158 71 L816 71 L816 537 L158 537 L158 71 Z"/>
      </clipPath>
    </defs>
    <g fill="white" text-rendering="geometricPrecision" shape-rendering="geometricPrecision" transform="translate(-158,-71)" stroke="white">
      <rect x="158" width="658" height="466" y="71" clip-path="url(#clipPath2)" stroke="none"/>
    </g>
    <g fill="rgb(255,102,0)" text-rendering="geometricPrecision" shape-rendering="geometricPrecision" transform="matrix(1,0,0,1,-158,-71)" stroke="rgb(255,102,0)">
      <rect x="588.25" y="86" clip-path="url(#clipPath2)" width="212" rx="4" ry="4" height="77.7988" stroke="none"/>
      <rect x="588.25" y="86" clip-path="url(#clipPath2)" fill="rgb(235,235,235)" width="212" height="17.7988" stroke="none"/>
    </g>
    <g font-size="15px" stroke-linecap="butt" transform="matrix(1,0,0,1,-158,-71)" text-rendering="geometricPrecision" font-family="sans-serif" shape-rendering="geometricPrecision" stroke-miterlimit="1.45">
      <text x="747.625" xml:space="preserve" y="99.25" clip-path="url(#clipPath2)" stroke="none">Agents</text>
      <rect x="588.25" y="86" clip-path="url(#clipPath2)" fill="none" width="212" stroke-dasharray="6,2" rx="4" ry="4" height="77.7988"/>
    </g>
    <g fill="rgb(255,204,0)" text-rendering="geometricPrecision" shape-rendering="geometricPrecision" transform="matrix(1,0,0,1,-158,-71)" stroke="rgb(255,204,0)">
      <rect x="603.25" width="30" height="30" y="118.7988" clip-path="url(#clipPath2)" stroke="none"/>
    </g>
    <g text-rendering="geometricPrecision" stroke-miterlimit="1.45" shape-rendering="geometricPrecision" font-family="sans-serif" transform="matrix(1,0,0,1,-158,-71)" stroke-linecap="butt">
      <text x="614.4561" xml:space="preserve" y="137.2793" clip-path="url(#clipPath2)" stroke="none">1</text>
      <rect fill="none" x="603.25" width="30" height="30" y="118.7988" clip-path="url(#clipPath2)"/>
    </g>
    <g fill="rgb(255,204,0)" text-rendering="geometricPrecision" shape-rendering="geometricPrecision" transform="matrix(1,0,0,1,-158,-71)" stroke="rgb(255,204,0)">
      <rect x="641.25" width="30" height="30" y="118.7988" clip-path="url(#clipPath2)" stroke="none"/>
    </g>
    <g text-rendering="geometricPrecision" stroke-miterlimit="1.45" shape-rendering="geometricPrecision" font-family="sans-serif" transform="matrix(1,0,0,1,-158,-71)" stroke-linecap="butt">
      <text x="652.4561" xml:space="preserve" y="137.2793" clip-path="url(#clipPath2)" stroke="none">2</text>
      <rect fill="none" x="641.25" width="30" height="30" y="118.7988" clip-path="url(#clipPath2)"/>
    </g>
    <g fill="rgb(255,204,0)" text-rendering="geometricPrecision" shape-rendering="geometricPrecision" transform="matrix(1,0,0,1,-158,-71)" stroke="rgb(255,204,0)">
      <rect x="679.25" width="30" height="30" y="118.7988" clip-path="url(#clipPath2)" stroke="none"/>
    </g>
    <g text-rendering="geometricPrecision" stroke-miterlimit="1.45" shape-rendering="geometricPrecision" font-family="sans-serif" transform="matrix(1,0,0,1,-158,-71)" stroke-linecap="butt">
      <text x="690.4561" xml:space="preserve" y="137.2793" clip-path="url(#clipPath2)" stroke="none">3</text>
      <rect fill="none" x="679.25" width="30" height="30" y="118.7988" clip-path="url(#clipPath2)"/>
    </g>
    <g fill="rgb(255,204,0)" text-rendering="geometricPrecision" shape-rendering="geometricPrecision" transform="matrix(1,0,0,1,-158,-71)" stroke="rgb(255,204,0)">
      <rect x="717.25" width="30" height="30" y="118.7988" clip-path="url(#clipPath2)" stroke="none"/>
    </g>
    <g text-rendering="geometricPrecision" stroke-miterlimit="1.45" shape-rendering="geometricPrecision" font-family="sans-serif" transform="matrix(1,0,0,1,-158,-71)" stroke-linecap="butt">
      <text x="726.5547" xml:space="preserve" y="137.2793" clip-path="url(#clipPath2)" stroke="none">...</text>
      <rect fill="none" x="717.25" width="30" height="30" y="118.7988" clip-path="url(#clipPath2)"/>
    </g>
    <g fill="rgb(255,204,0)" text-rendering="geometricPrecision" shape-rendering="geometricPrecision" transform="matrix(1,0,0,1,-158,-71)" stroke="rgb(255,204,0)">
      <rect x="755.25" width="30" height="30" y="118.7988" clip-path="url(#clipPath2)" stroke="none"/>
    </g>
    <g text-rendering="geometricPrecision" stroke-miterlimit="1.45" shape-rendering="geometricPrecision" font-family="sans-serif" transform="matrix(1,0,0,1,-158,-71)" stroke-linecap="butt">
      <text x="766.5264" xml:space="preserve" y="137.2793" clip-path="url(#clipPath2)" stroke="none">n</text>
      <rect fill="none" x="755.25" width="30" height="30" y="118.7988" clip-path="url(#clipPath2)"/>
    </g>
    <g fill="teal" text-rendering="geometricPrecision" shape-rendering="geometricPrecision" transform="matrix(1,0,0,1,-158,-71)" stroke="teal">
      <rect x="173.25" y="86" clip-path="url(#clipPath2)" width="90" rx="4" ry="4" height="151.7988" stroke="none"/>
      <rect x="173.25" y="86" clip-path="url(#clipPath2)" fill="rgb(235,235,235)" width="90" height="17.7988" stroke="none"/>
    </g>
    <g font-size="15px" stroke-linecap="butt" transform="matrix(1,0,0,1,-158,-71)" text-rendering="geometricPrecision" font-family="sans-serif" shape-rendering="geometricPrecision" stroke-miterlimit="1.45">
      <text x="214.7119" xml:space="preserve" y="99.25" clip-path="url(#clipPath2)" stroke="none">Role α</text>
      <rect x="173.25" y="86" clip-path="url(#clipPath2)" fill="none" width="90" stroke-dasharray="6,2" rx="4" ry="4" height="151.7988"/>
    </g>
    <g fill="aqua" text-rendering="geometricPrecision" shape-rendering="geometricPrecision" transform="matrix(1,0,0,1,-158,-71)" stroke="aqua">
      <circle r="15" clip-path="url(#clipPath2)" cx="203.25" cy="133.7988" stroke="none"/>
    </g>
    <g text-rendering="geometricPrecision" stroke-miterlimit="1.45" shape-rendering="geometricPrecision" font-family="sans-serif" transform="matrix(1,0,0,1,-158,-71)" stroke-linecap="butt">
      <text x="199.9365" xml:space="preserve" y="137.2793" clip-path="url(#clipPath2)" stroke="none">a</text>
      <circle fill="none" r="15" clip-path="url(#clipPath2)" cx="203.25" cy="133.7988"/>
    </g>
    <g fill="aqua" text-rendering="geometricPrecision" shape-rendering="geometricPrecision" transform="matrix(1,0,0,1,-158,-71)" stroke="aqua">
      <circle r="15" clip-path="url(#clipPath2)" cx="203.25" cy="170.7988" stroke="none"/>
    </g>
    <g text-rendering="geometricPrecision" stroke-miterlimit="1.45" shape-rendering="geometricPrecision" font-family="sans-serif" transform="matrix(1,0,0,1,-158,-71)" stroke-linecap="butt">
      <text x="199.4736" xml:space="preserve" y="174.2793" clip-path="url(#clipPath2)" stroke="none">b</text>
      <circle fill="none" r="15" clip-path="url(#clipPath2)" cx="203.25" cy="170.7988"/>
    </g>
    <g fill="aqua" text-rendering="geometricPrecision" shape-rendering="geometricPrecision" transform="matrix(1,0,0,1,-158,-71)" stroke="aqua">
      <circle r="15" clip-path="url(#clipPath2)" cx="233.25" cy="207.7988" stroke="none"/>
    </g>
    <g text-rendering="geometricPrecision" stroke-miterlimit="1.45" shape-rendering="geometricPrecision" font-family="sans-serif" transform="matrix(1,0,0,1,-158,-71)" stroke-linecap="butt">
      <text x="230.1768" xml:space="preserve" y="211.2793" clip-path="url(#clipPath2)" stroke="none">c</text>
      <circle fill="none" r="15" clip-path="url(#clipPath2)" cx="233.25" cy="207.7988"/>
    </g>
    <g fill="teal" text-rendering="geometricPrecision" shape-rendering="geometricPrecision" transform="matrix(1,0,0,1,-158,-71)" stroke="teal">
      <rect x="388.25" y="86" clip-path="url(#clipPath2)" width="90" rx="4" ry="4" height="102.7988" stroke="none"/>
      <rect x="388.25" y="86" clip-path="url(#clipPath2)" fill="rgb(235,235,235)" width="90" height="17.7988" stroke="none"/>
    </g>
    <g font-size="15px" stroke-linecap="butt" transform="matrix(1,0,0,1,-158,-71)" text-rendering="geometricPrecision" font-family="sans-serif" shape-rendering="geometricPrecision" stroke-miterlimit="1.45">
      <text x="431.7261" xml:space="preserve" y="99.25" clip-path="url(#clipPath2)" stroke="none">Role γ</text>
      <rect x="388.25" y="86" clip-path="url(#clipPath2)" fill="none" width="90" stroke-dasharray="6,2" rx="4" ry="4" height="102.7988"/>
    </g>
    <g fill="aqua" text-rendering="geometricPrecision" shape-rendering="geometricPrecision" transform="matrix(1,0,0,1,-158,-71)" stroke="aqua">
      <circle r="15" clip-path="url(#clipPath2)" cx="418.25" cy="133.7988" stroke="none"/>
    </g>
    <g text-rendering="geometricPrecision" stroke-miterlimit="1.45" shape-rendering="geometricPrecision" font-family="sans-serif" transform="matrix(1,0,0,1,-158,-71)" stroke-linecap="butt">
      <text x="414.4736" xml:space="preserve" y="137.2793" clip-path="url(#clipPath2)" stroke="none">d</text>
      <circle fill="none" r="15" clip-path="url(#clipPath2)" cx="418.25" cy="133.7988"/>
    </g>
    <g fill="aqua" text-rendering="geometricPrecision" shape-rendering="geometricPrecision" transform="matrix(1,0,0,1,-158,-71)" stroke="aqua">
      <circle r="15" clip-path="url(#clipPath2)" cx="443.25" cy="158.7988" stroke="none"/>
    </g>
    <g text-rendering="geometricPrecision" stroke-miterlimit="1.45" shape-rendering="geometricPrecision" font-family="sans-serif" transform="matrix(1,0,0,1,-158,-71)" stroke-linecap="butt">
      <text x="439.9072" xml:space="preserve" y="162.2793" clip-path="url(#clipPath2)" stroke="none">e</text>
      <circle fill="none" r="15" clip-path="url(#clipPath2)" cx="443.25" cy="158.7988"/>
    </g>
    <g fill="teal" text-rendering="geometricPrecision" shape-rendering="geometricPrecision" transform="matrix(1,0,0,1,-158,-71)" stroke="teal">
      <rect x="278.25" y="86" clip-path="url(#clipPath2)" width="90" rx="4" ry="4" height="77.7988" stroke="none"/>
      <rect x="278.25" y="86" clip-path="url(#clipPath2)" fill="rgb(235,235,235)" width="90" height="17.7988" stroke="none"/>
    </g>
    <g font-size="15px" stroke-linecap="butt" transform="matrix(1,0,0,1,-158,-71)" text-rendering="geometricPrecision" font-family="sans-serif" shape-rendering="geometricPrecision" stroke-miterlimit="1.45">
      <text x="321.0815" xml:space="preserve" y="99.25" clip-path="url(#clipPath2)" stroke="none">Role β</text>
      <rect x="278.25" y="86" clip-path="url(#clipPath2)" fill="none" width="90" stroke-dasharray="6,2" rx="4" ry="4" height="77.7988"/>
    </g>
    <g fill="aqua" text-rendering="geometricPrecision" shape-rendering="geometricPrecision" transform="matrix(1,0,0,1,-158,-71)" stroke="aqua">
      <circle r="15" clip-path="url(#clipPath2)" cx="325.75" cy="133.7988" stroke="none"/>
    </g>
    <g text-rendering="geometricPrecision" stroke-miterlimit="1.45" shape-rendering="geometricPrecision" font-family="sans-serif" transform="matrix(1,0,0,1,-158,-71)" stroke-linecap="butt">
      <text x="323.5439" xml:space="preserve" y="137.2793" clip-path="url(#clipPath2)" stroke="none">f</text>
      <circle fill="none" r="15" clip-path="url(#clipPath2)" cx="325.75" cy="133.7988"/>
    </g>
    <g fill="gray" text-rendering="geometricPrecision" shape-rendering="geometricPrecision" transform="matrix(1,0,0,1,-158,-71)" stroke="gray">
      <path d="M388.25 269.7676 L460.3167 230.5789 L562.2354 230.5789 L634.3023 269.7676 L634.3023 325.189 L562.2354 364.3777 L460.3167 364.3777 L388.25 325.189 Z" fill-rule="evenodd" clip-path="url(#clipPath2)" stroke="none"/>
    </g>
    <g stroke-linecap="butt" font-size="28px" transform="matrix(1,0,0,1,-158,-71)" fill="white" text-rendering="geometricPrecision" font-family="sans-serif" shape-rendering="geometricPrecision" stroke="white" stroke-miterlimit="1.45">
      <text x="450.4567" xml:space="preserve" y="305.5994" clip-path="url(#clipPath2)" stroke="none">Allocator</text>
    </g>
    <g text-rendering="geometricPrecision" stroke-miterlimit="1.45" shape-rendering="geometricPrecision" transform="matrix(1,0,0,1,-158,-71)" stroke-linecap="butt">
      <path fill="none" d="M388.25 269.7676 L460.3167 230.5789 L562.2354 230.5789 L634.3023 269.7676 L634.3023 325.189 L562.2354 364.3777 L460.3167 364.3777 L388.25 325.189 Z" fill-rule="evenodd" clip-path="url(#clipPath2)"/>
    </g>
    <g text-rendering="geometricPrecision" stroke-miterlimit="1.45" shape-rendering="geometricPrecision" transform="matrix(1,0,0,1,-158,-71)" stroke-linecap="butt">
      <path fill="none" d="M651.9667 162.7186 L582.7142 228.0367 L581.5283 222.6257 L574.9047 237.4645 L574.9047 237.4645 L590.1051 231.7191 L584.7726 230.2191 L654.0253 164.9008 L651.9667 162.7186 Z" clip-path="url(#clipPath2)"/>
    </g>
    <g text-rendering="geometricPrecision" stroke-miterlimit="1.45" shape-rendering="geometricPrecision" transform="matrix(1,0,0,1,-158,-71)" stroke-linecap="butt">
      <path fill="none" d="M263.9151 181.3752 L262.6532 184.0969 L405.6233 250.2471 L401.0422 253.3613 L417.2801 253.9878 L417.2801 253.9878 L406.2911 242.0168 L406.8831 247.5244 L406.8831 247.5244 L263.9151 181.3752 Z" clip-path="url(#clipPath2)"/>
    </g>
    <g text-rendering="geometricPrecision" stroke-miterlimit="1.45" shape-rendering="geometricPrecision" transform="matrix(1,0,0,1,-158,-71)" stroke-linecap="butt">
      <path fill="none" d="M366.4277 162.4938 L364.3994 164.7043 L436.6055 230.9783 L436.6055 230.9783 L431.2939 232.5506 L446.5709 238.089 L439.7463 223.3416 L438.634 228.7682 L366.4277 162.4938 Z" clip-path="url(#clipPath2)"/>
    </g>
    <g text-rendering="geometricPrecision" stroke-miterlimit="1.45" shape-rendering="geometricPrecision" transform="matrix(1,0,0,1,-158,-71)" stroke-linecap="butt">
      <path fill="none" d="M459.6479 188.134 L456.9518 189.4499 L471.9985 220.3197 L471.9985 220.3197 L466.48 219.8391 L478.6703 230.5842 L477.7163 214.3622 L474.6952 219.0053 L459.6479 188.134 Z" clip-path="url(#clipPath2)"/>
    </g>
    <g fill="rgb(235,235,235)" text-rendering="geometricPrecision" shape-rendering="geometricPrecision" transform="matrix(1,0,0,1,-158,-71)" stroke="rgb(235,235,235)">
      <rect x="407.1315" width="208.2891" height="17.7988" y="406.1578" clip-path="url(#clipPath2)" stroke="none"/>
    </g>
    <g font-size="15px" stroke-linecap="butt" transform="matrix(1,0,0,1,-158,-71)" text-rendering="geometricPrecision" font-family="sans-serif" shape-rendering="geometricPrecision" stroke-miterlimit="1.45">
      <text x="533.1032" xml:space="preserve" y="419.4078" clip-path="url(#clipPath2)" stroke="none">Allocations</text>
      <rect x="407.1315" y="406.1578" clip-path="url(#clipPath2)" fill="none" width="208.2891" stroke-dasharray="6,2" rx="4" ry="4" height="115.5828"/>
    </g>
    <g fill="rgb(255,204,0)" text-rendering="geometricPrecision" shape-rendering="geometricPrecision" transform="matrix(1,0,0,1,-158,-71)" stroke="rgb(255,204,0)">
      <rect x="422.1315" width="30" height="30" y="438.9567" clip-path="url(#clipPath2)" stroke="none"/>
    </g>
    <g text-rendering="geometricPrecision" stroke-miterlimit="1.45" shape-rendering="geometricPrecision" font-family="sans-serif" transform="matrix(1,0,0,1,-158,-71)" stroke-linecap="butt">
      <text x="433.3376" xml:space="preserve" y="457.4371" clip-path="url(#clipPath2)" stroke="none">1</text>
      <rect fill="none" x="422.1315" width="30" height="30" y="438.9567" clip-path="url(#clipPath2)"/>
    </g>
    <g fill="aqua" text-rendering="geometricPrecision" shape-rendering="geometricPrecision" transform="matrix(1,0,0,1,-158,-71)" stroke="aqua">
      <circle r="15" clip-path="url(#clipPath2)" cx="437.1315" cy="491.7407" stroke="none"/>
    </g>
    <g text-rendering="geometricPrecision" stroke-miterlimit="1.45" shape-rendering="geometricPrecision" font-family="sans-serif" transform="matrix(1,0,0,1,-158,-71)" stroke-linecap="butt">
      <text x="434.9254" xml:space="preserve" y="495.2211" clip-path="url(#clipPath2)" stroke="none">f</text>
      <circle fill="none" r="15" clip-path="url(#clipPath2)" cx="437.1315" cy="491.7407"/>
    </g>
    <g fill="aqua" text-rendering="geometricPrecision" shape-rendering="geometricPrecision" transform="matrix(1,0,0,1,-158,-71)" stroke="aqua">
      <circle r="15" clip-path="url(#clipPath2)" cx="481.1315" cy="491.7407" stroke="none"/>
    </g>
    <g text-rendering="geometricPrecision" stroke-miterlimit="1.45" shape-rendering="geometricPrecision" font-family="sans-serif" transform="matrix(1,0,0,1,-158,-71)" stroke-linecap="butt">
      <text x="477.818" xml:space="preserve" y="495.2211" clip-path="url(#clipPath2)" stroke="none">a</text>
      <circle fill="none" r="15" clip-path="url(#clipPath2)" cx="481.1315" cy="491.7407"/>
    </g>
    <g fill="aqua" text-rendering="geometricPrecision" shape-rendering="geometricPrecision" transform="matrix(1,0,0,1,-158,-71)" stroke="aqua">
      <circle r="15" clip-path="url(#clipPath2)" cx="525.1315" cy="491.7407" stroke="none"/>
    </g>
    <g text-rendering="geometricPrecision" stroke-miterlimit="1.45" shape-rendering="geometricPrecision" font-family="sans-serif" transform="matrix(1,0,0,1,-158,-71)" stroke-linecap="butt">
      <text x="521.3552" xml:space="preserve" y="495.2211" clip-path="url(#clipPath2)" stroke="none">b</text>
      <circle fill="none" r="15" clip-path="url(#clipPath2)" cx="525.1315" cy="491.7407"/>
    </g>
    <g fill="rgb(255,204,0)" text-rendering="geometricPrecision" shape-rendering="geometricPrecision" transform="matrix(1,0,0,1,-158,-71)" stroke="rgb(255,204,0)">
      <rect x="510.1315" width="30" height="30" y="438.9567" clip-path="url(#clipPath2)" stroke="none"/>
    </g>
    <g text-rendering="geometricPrecision" stroke-miterlimit="1.45" shape-rendering="geometricPrecision" font-family="sans-serif" transform="matrix(1,0,0,1,-158,-71)" stroke-linecap="butt">
      <text x="521.3376" xml:space="preserve" y="457.4371" clip-path="url(#clipPath2)" stroke="none">2</text>
      <rect fill="none" x="510.1315" width="30" height="30" y="438.9567" clip-path="url(#clipPath2)"/>
      <text x="571.8425" xml:space="preserve" font-size="28px" y="483.0939" clip-path="url(#clipPath2)" stroke="none">...</text>
    </g>
    <g text-rendering="geometricPrecision" stroke-miterlimit="1.45" shape-rendering="geometricPrecision" transform="matrix(1,0,0,1,-158,-71)" stroke-linecap="butt">
      <path fill="none" d="M509.776 364.4162 L509.776 394.0137 L509.776 394.0137 L505.026 391.1637 L511.276 406.1637 L517.526 391.1637 L512.776 394.0137 L512.776 364.4162 Z" clip-path="url(#clipPath2)"/>
    </g>
  </g>
</svg>
